<?xml version="1.0" encoding="UTF-8" standalone="no"?>
<svg
   xmlns:dc="http://purl.org/dc/elements/1.1/"
   xmlns:cc="http://creativecommons.org/ns#"
   xmlns:rdf="http://www.w3.org/1999/02/22-rdf-syntax-ns#"
   xmlns:svg="http://www.w3.org/2000/svg"
   xmlns="http://www.w3.org/2000/svg"
   xmlns:sodipodi="http://sodipodi.sourceforge.net/DTD/sodipodi-0.dtd"
   xmlns:inkscape="http://www.inkscape.org/namespaces/inkscape"
   version="1.0"
   width="1107.000000pt"
   height="1109.000000pt"
   viewBox="0 0 1107.000000 1109.000000"
   preserveAspectRatio="xMidYMid meet"
   id="svg6"
   sodipodi:docname="iMOD-logo.svg"
   inkscape:version="1.0 (4035a4fb49, 2020-05-01)">
  <metadata
     id="metadata12">
    <rdf:RDF>
      <cc:Work
         rdf:about="">
        <dc:format>image/svg+xml</dc:format>
        <dc:type
           rdf:resource="http://purl.org/dc/dcmitype/StillImage" />
        <dc:title></dc:title>
      </cc:Work>
    </rdf:RDF>
  </metadata>
  <defs
     id="defs10" />
  <sodipodi:namedview
     inkscape:document-rotation="0"
     pagecolor="#ffffff"
     bordercolor="#666666"
     borderopacity="1"
     objecttolerance="10"
     gridtolerance="10"
     guidetolerance="10"
     inkscape:pageopacity="0"
     inkscape:pageshadow="2"
     inkscape:window-width="1827"
     inkscape:window-height="1057"
     id="namedview8"
     showgrid="false"
     inkscape:zoom="0.22571308"
     inkscape:cx="1220.9632"
     inkscape:cy="913.62883"
     inkscape:window-x="1912"
     inkscape:window-y="-8"
     inkscape:window-maximized="1"
     inkscape:current-layer="svg6">
    <inkscape:grid
       type="xygrid"
       id="grid14" />
  </sodipodi:namedview>
  <g
     transform="translate(0.000000,1109.000000) scale(0.100000,-0.100000)"
     fill="#000000"
     stroke="none"
     id="g4"
     clip-path="none" />
  <path
     sodipodi:nodetypes="ccccccccccccccccccccccccccscccccsccccccccccscccsccccccccscccccccccccsc"
     id="rect24"
     style="fill:#ffffff;fill-opacity:1;fill-rule:evenodd;stroke-width:2.17583"
     d="m 412.5,86.4 c 22.3,7.5 40,25.2 47.2,47.3 3.8,11.5 4.4,28.8 1.4,40.3 -6.8,26.2 -27.1,46.7 -53.1,53.7 -10.1,2.7 -28.4,2.4 -38,-0.6 -30.9,-9.6 -50.2,-33.4 -53.5,-66.1 -0.8,-8.1 1.5,-22.6 5.2,-31.9 6.3,-16.1 19.8,-30.7 35.6,-38.5 12.3,-6 20.1,-7.7 35.2,-7.2 9.8,0.3 13.5,0.8 20,3 z m -54.3,164.3 c 25.7,10.3 42.3,27.3 48.4,49.8 0.9,3.4 1.9,11.7 2.1,19.2 0.6,15.6 -1,27.4 -6.3,46.3 -8.1,28.7 -16,46.4 -55.9,126 -46.9,93.7 -56,114.6 -65.9,151 -8.6,31.8 -11.1,51.7 -11,87.5 0,34.6 2.3,54.2 11.2,94.4 0.4,2.2 -0.2,1.9 -7.1,-2.8 -35,-24.3 -55,-56.7 -61.2,-99.2 -2,-13.9 -2,-42.1 0.1,-58.1 5.3,-42.1 19.2,-86.9 43.9,-141.3 10.3,-22.6 19.3,-40 43,-82.5 31.5,-56.3 42.9,-81.9 49.6,-111 3.3,-14.1 3.3,-39 0.1,-50.9 -2.9,-10.6 -7.5,-20.6 -13.5,-29.4 -2.6,-3.7 -4.7,-6.9 -4.7,-7.1 0,-0.9 18.8,4.7 27.2,8.1 z M 758,497.9 c 29.1,11.1 63,66.4 94.7,154.6 29.5,82.2 45.3,165.4 45.3,237.8 -0.1,51.1 -7.9,87.3 -24.4,113.1 -3.7,5.6 -18.1,21.6 -19.6,21.6 -0.4,0 0.2,-4.4 1.2,-9.7 C 870.6,935 859,837.8 822.5,742 804.7,695.3 782.9,653 761.2,622.6 c -7.6,-10.5 -20.3,-24 -24.8,-26.1 -3.5,-1.6 -3.7,-1.6 -6.2,0.2 -6.3,4.7 -10.9,18.5 -25.1,74.3 -6.9,27.4 -9.8,38.5 -12.8,49 -2.1,7.7 -13.4,44.1 -14.4,46.5 -0.4,1.1 -2.4,6.4 -4.4,11.8 -18.1,49.5 -41.7,85.4 -67.7,102.8 -4.9,3.2 -9.5,5.9 -10.3,5.9 -2,0 -11.7,-11 -17.8,-20.2 -11.6,-17.5 -20.4,-36.1 -32.7,-69.3 -3,-8 -10.6,-32 -14,-44 -1.7,-6.1 -4,-13.9 -5,-17.5 -1,-3.6 -5.3,-20 -9.5,-36.5 -17.9,-70.7 -22,-83.7 -28.3,-90.4 l -3.4,-3.6 -2.8,3.2 c -3.6,4 -8.1,18 -14.5,44.3 -15.1,62.4 -25.7,95.6 -39.3,122.6 -13.6,27.1 -31.6,46.9 -49.7,54.9 -8.2,3.7 -20.6,5.9 -29.4,5.2 -7.9,-0.6 -18.1,-2.6 -18.1,-3.6 0,-0.3 2.6,-1.7 5.6,-3 33.8,-14.6 58.9,-57.2 76.3,-129.1 5.5,-23.1 9,-41.2 17,-89 3.9,-22.8 7.7,-44.9 8.5,-49 5.9,-30.5 11.8,-47.8 19,-55.7 6.8,-7.6 11.5,-7.9 24.1,-1.3 39.9,20.6 66.6,76.4 90.9,190 1.3,6.3 4,19.1 6,28.5 12.6,58.8 21,85.4 27.4,86.3 8.3,1.2 15.8,-19.2 36.2,-98.8 23.4,-91 38,-135.7 55.1,-168.9 16.1,-31.2 32,-46.1 49.1,-46.1 4.2,0 8.7,0.7 11.8,1.9 z" />
</svg>
