<?xml version="1.0" encoding="UTF-8" standalone="no"?>
<svg
   xmlns:dc="http://purl.org/dc/elements/1.1/"
   xmlns:cc="http://creativecommons.org/ns#"
   xmlns:rdf="http://www.w3.org/1999/02/22-rdf-syntax-ns#"
   xmlns:svg="http://www.w3.org/2000/svg"
   xmlns="http://www.w3.org/2000/svg"
   xmlns:sodipodi="http://sodipodi.sourceforge.net/DTD/sodipodi-0.dtd"
   xmlns:inkscape="http://www.inkscape.org/namespaces/inkscape"
   version="1.0"
   width="174.08958pt"
   height="37.842468pt"
   viewBox="0 0 174.08958 37.842469"
   preserveAspectRatio="xMidYMid meet"
   id="svg6"
   sodipodi:docname="iMOD-python-logo.svg"
   inkscape:version="0.92.4 (5da689c313, 2019-01-14)"
   inkscape:export-filename="C:\Users\engelen\projects_wdir\iMOD6\logo\components\iMOD-python.png"
   inkscape:export-xdpi="17.914656"
   inkscape:export-ydpi="17.914656">
  <metadata
     id="metadata12">
    <rdf:RDF>
      <cc:Work
         rdf:about="">
        <dc:format>image/svg+xml</dc:format>
        <dc:type
           rdf:resource="http://purl.org/dc/dcmitype/StillImage" />
        <dc:title></dc:title>
      </cc:Work>
    </rdf:RDF>
  </metadata>
  <defs
     id="defs10" />
  <sodipodi:namedview
     inkscape:document-rotation="0"
     pagecolor="#ffffff"
     bordercolor="#666666"
     borderopacity="1"
     objecttolerance="10"
     gridtolerance="10"
     guidetolerance="10"
     inkscape:pageopacity="0"
     inkscape:pageshadow="2"
     inkscape:window-width="2560"
     inkscape:window-height="1377"
     id="namedview8"
     showgrid="false"
     inkscape:zoom="5.12"
     inkscape:cx="101.05783"
     inkscape:cy="1.6397194"
     inkscape:window-x="1912"
     inkscape:window-y="148"
     inkscape:window-maximized="1"
     inkscape:current-layer="svg6"
     inkscape:pagecheckerboard="true"
     fit-margin-top="0"
     fit-margin-left="0"
     fit-margin-right="0"
     fit-margin-bottom="0" />
  <g
     transform="matrix(0.0451005,0,0,0.0451005,134.58858,-5.9513194)"
     id="g24">
    <path
       transform="scale(0.75000001)"
       d="m 424.69336,886.16016 -69.49805,-16.20899 c -0.42041,3.96169 -1.00684,7.84486 -1.31445,11.88672 -5.72799,75.26348 16.9108,129.94541 70.24609,169.66991 5.13927,3.8278 9.56415,6.7406 9.83203,6.4727 0.26799,-0.268 -1.00094,-7.3611 -2.81836,-15.7617 -10.66847,-49.31579 -12.9453,-108.95592 -6.44726,-156.05864 z"
       style="fill:#ffffff;fill-opacity:1;fill-rule:evenodd;stroke:#15aae4;stroke-width:0;stroke-miterlimit:4;stroke-dasharray:none"
       id="path831"
       inkscape:connector-curvature="0" />
    <path
       transform="scale(0.75000001)"
       d="m 383.03125,758.4707 c -1.35517,3.56449 -2.7554,7.08773 -4.02539,10.73828 -6.54202,18.80473 -11.37914,35.42243 -15.25391,51.41602 l 71.84961,16.64453 c 4.75569,-16.50304 10.32049,-33.6169 15.08789,-45.4043 1.09389,-2.70465 2.87219,-6.63304 4.24024,-9.82421 z"
       style="fill:#ffffff;fill-opacity:1;fill-rule:evenodd;stroke:#15aae4;stroke-width:0;stroke-miterlimit:4;stroke-dasharray:none"
       id="path78"
       inkscape:connector-curvature="0" />
    <path
       transform="scale(0.75000001)"
       d="m 491.90039,373.21289 c -53.07992,-0.1671 -25.01651,121.06521 -14.29101,155.42969 -1.0194,31.38242 -11.13044,52.88979 -24.32813,81.49414 -19.41935,42.08901 -35.85083,73.08582 -49.86914,102.07617 l 72.79492,23.3418 c 11.56674,-24.25564 26.64329,-55.0776 47.12891,-96.31836 18.93985,-38.12888 38.29272,-79.1125 43.00586,-91.07422 26.26605,-66.66135 37.55808,-92.49703 12.99804,-121.77149 -7.59621,-9.05446 -19.18505,-17.84945 -29.40039,-25.93554 -25.70572,-19.26778 -44.50888,-27.1996 -58.03906,-27.24219 z m 55.31836,53.57031 c 9.93808,-0.17259 21.15761,8.50155 23.25195,19.23438 4.66356,16.28766 -4.45836,30.05993 -18.70703,32.39062 -11.35617,1.47904 -21.85446,-7.20119 -24.38281,-20.1582 -2.52835,-12.95703 3.7204,-26.05416 14.51367,-30.41797 1.68645,-0.68184 3.48384,-1.01687 5.32422,-1.04883 z"
       style="fill:#ffffff;fill-opacity:1;fill-rule:evenodd;stroke:#15aae4;stroke-width:0;stroke-miterlimit:4;stroke-dasharray:none"
       id="path71"
       inkscape:connector-curvature="0" />
    <path
       id="path833"
       d="m 407.06995,259.20233 c -21.99638,-5.92387 -40.14088,-24.20378 -45.87456,-46.21679 -4.05688,-15.57543 -1.46552,-35.4217 6.38344,-48.88878 2.00702,-3.44372 6.98008,-9.53407 11.05125,-13.53413 24.61397,-24.18443 63.19846,-24.87593 88.35706,-1.58349 12.74347,11.79821 18.31559,22.50882 20.72755,39.8423 4.25717,30.59316 -16.03538,61.45488 -46.23379,70.3143 -8.54084,2.50565 -25.23436,2.53795 -34.41095,0.0666 z"
       style="fill:#ffffff;fill-opacity:1;fill-rule:evenodd;stroke:#15aae4;stroke-width:0;stroke-miterlimit:4;stroke-dasharray:none"
       inkscape:connector-curvature="0" />
    <path
       transform="scale(0.75000001)"
       d="m 989.92578,667.69531 c -12.83545,-0.0905 -20.7471,3.86023 -32.71289,16.33789 -12.17713,12.6982 -18.22784,22.23677 -30.59766,48.22461 -17.64569,37.07206 -31.58003,79.57559 -53.95898,164.59571 -25.466,96.74869 -34.18352,125.30898 -41.61719,136.33988 -12.56782,18.6493 -21.4223,-0.571 -40.41797,-87.74028 -19.12229,-87.75059 -26.21768,-115.67522 -38.69531,-152.29101 -9.06221,-26.59312 -23.13048,-56.88283 -34.0039,-73.21094 -14.4238,-21.65946 -35.66753,-40.07552 -52.78711,-45.76172 -7.67691,-2.54986 -8.5199,-2.52448 -13.57813,0.42969 -7.94752,4.6416 -16.1985,21.15566 -21.94922,43.92578 -2.72826,10.80274 -9.66982,46.86719 -15.42578,80.14453 -16.55479,95.71136 -23.9965,122.16925 -38.02344,159.72461 -58.43181,107.96954 -140.44587,21.28894 -113.11132,201.30274 78.12031,35.6422 116.37792,-105.8878 129.96484,-131.1426 20.70972,-38.49435 33.34807,-57.4764 59.48633,-159.10936 17.69164,-68.78993 21.01883,-76.91133 28.67383,-69.98828 8.24107,7.45298 11.17631,16.37883 33.26953,101.18164 25.3426,97.27463 37.45277,133.9111 58.15234,175.9258 11.71576,23.7798 28.1299,48.3701 35.20703,52.7441 6.74689,4.17 36.83178,-22.5537 54.17188,-48.1191 29.78046,-43.9071 47.39494,-90.55815 75.75,-200.6172 12.949,-50.26162 21.15721,-78.50008 24.95507,-85.85352 6.7537,-13.07635 12.85649,-13.1943 25.55665,-0.49414 18.67302,18.67299 39.04212,49.86632 60.39452,92.49024 l 68.3789,-27.81641 c -26.5671,-75.85092 -59.797,-141.67382 -89.1758,-171.02539 -15.4315,-15.41727 -24.223,-20.10073 -37.90622,-20.19727 z m 142.53322,239.0625 -62.8516,25.61719 c 5.9207,14.06161 11.409,28.29037 16.4785,42.60156 l 58.502,-23.54883 c -3.6948,-14.93591 -7.746,-29.88267 -12.1289,-44.66992 z m 23.0332,94.57619 -54.0234,21.9765 c 5.3073,18.7695 9.8338,37.5295 13.5566,56.1055 l 49.5351,-19.3457 c -1.5539,-13.8483 -3.7839,-28.5327 -6.9453,-46.9453 -0.6717,-3.9127 -1.3835,-7.8453 -2.123,-11.791 z m -658.90626,48.5605 c 9.93807,-0.1726 21.15565,8.5016 23.25,19.2344 4.66356,16.2877 -4.45641,30.058 -18.70508,32.3887 -11.35617,1.479 -21.85447,-7.1993 -24.38281,-20.1563 -2.52835,-12.957 3.7204,-26.0541 14.51367,-30.4179 1.68645,-0.6819 3.48383,-1.0169 5.32422,-1.0489 z m 671.03316,60.6621 -44.6914,17.25 c 4.4304,35.4539 5.616,69.6067 3.2364,101.1231 -1.8009,23.8494 -5.8889,55.3735 -8.211,63.3203 -0.8664,2.9652 -0.6398,3.1129 1.7461,1.1328 6.7567,-5.6075 21.927,-26.1535 27.4668,-37.2012 7.4425,-14.8417 14.0453,-37.0426 17.7793,-59.7754 2.1073,-12.8295 2.8194,-28.6932 2.8457,-63.3339 0.01,-8.1724 -0.048,-15.5664 -0.1719,-22.5157 z"
       style="fill:#ffffff;fill-opacity:1;fill-rule:evenodd;stroke:#15aae4;stroke-width:0;stroke-miterlimit:4;stroke-dasharray:none"
       id="path835"
       inkscape:connector-curvature="0" />
  </g>
  <flowRoot
     xml:space="preserve"
     id="flowRoot4536"
     style="font-style:normal;font-weight:normal;font-size:53.33333206px;line-height:1.25;font-family:sans-serif;letter-spacing:0px;word-spacing:0px;fill:#000000;fill-opacity:1;stroke:none"
     transform="matrix(0.75000001,0,0,0.75000001,-431.5128,-525.53925)"><flowRegion
       id="flowRegion4538"
       style="font-size:53.33333206px"><rect
         id="rect4540"
         width="479.6875"
         height="110.9375"
         x="820.3125"
         y="678.66669"
         style="font-size:53.33333206px" /></flowRegion><flowPara
       id="flowPara4542" /></flowRoot>  <flowRoot
     xml:space="preserve"
     id="flowRoot6053"
     style="font-style:normal;font-weight:normal;font-size:29.33333397px;line-height:1.25;font-family:sans-serif;letter-spacing:0px;word-spacing:0px;fill:#000000;fill-opacity:1;stroke:none"
     transform="matrix(0.75000001,0,0,0.75000001,-14.314373,6.3070776)"><flowRegion
       id="flowRegion6055"><rect
         id="rect6057"
         width="198.32135"
         height="80.101944"
         x="-5.6623783"
         y="-19.39526" /></flowRegion><flowPara
       id="flowPara6059" /></flowRoot>  <text
     xml:space="preserve"
     style="font-style:normal;font-weight:normal;font-size:20px;line-height:1.25;font-family:'Segoe UI';letter-spacing:0px;word-spacing:0px;fill:#ffffff;fill-opacity:1;stroke:none;stroke-width:0.75;-inkscape-font-specification:'Segoe UI';font-stretch:normal;font-variant:normal;"
     x="-1.8847656"
     y="25.827177"
     id="text7576"><tspan
       sodipodi:role="line"
       id="tspan7574"
       x="-1.8847656"
       y="25.827177"
       style="font-size:20px;fill:#ffffff;fill-opacity:1;stroke-width:0.75;-inkscape-font-specification:'Segoe UI';font-family:'Segoe UI';font-weight:normal;font-style:normal;font-stretch:normal;font-variant:normal;">iMOD Python</tspan></text>
</svg>
